<svg xmlns="http://www.w3.org/2000/svg" xmlns:xlink="http://www.w3.org/1999/xlink" viewBox="0 0 295 420"><defs><style>.cls-1{isolation:isolate;}.cls-2{fill:#fff;}.cls-3{fill:#eeeded;}.cls-4{fill:#020f00;}.cls-5{opacity:0.2;mix-blend-mode:overlay;}.cls-6{fill:#454c53;}.cls-7{fill:#ffc600;}.cls-8{mix-blend-mode:soft-light;fill:url(#linear-gradient);}.cls-12,.cls-15,.cls-9{fill:none;}.cls-9{stroke:#ffc300;stroke-miterlimit:10;stroke-width:4.67px;}.cls-10{fill:url(#linear-gradient-2);}.cls-11{fill:#1e1e1e;}.cls-12,.cls-15{stroke:#1e1e1e;stroke-linecap:round;stroke-linejoin:round;}.cls-12{stroke-width:3px;}.cls-13{fill:#e3e1e1;}.cls-14{fill:#ffc300;}.cls-15{stroke-width:2.63px;}</style><linearGradient id="linear-gradient" x1="233.82" y1="108.36" x2="62.18" y2="405.64" gradientUnits="userSpaceOnUse"><stop offset="0" stop-color="#fff"/><stop offset="1"/></linearGradient><linearGradient id="linear-gradient-2" x1="147.5" y1="154" x2="147.5" gradientUnits="userSpaceOnUse"><stop offset="0.78" stop-color="#fff"/><stop offset="1" stop-color="#d2d2d2"/></linearGradient></defs><title>Asset 2</title><g class="cls-1"><g id="Layer_2" data-name="Layer 2"><g id="OBJECTS"><path class="cls-2" d="M250,94.78V59H45V94.88A61.23,61.23,0,0,0,0,154V359.09C0,392.93,28.23,420,62.07,420H234.53c33.84,0,60.47-27.07,60.47-60.91V154A61,61,0,0,0,250,94.78Z"/><rect class="cls-3" x="21" y="112" width="254" height="290" rx="47.65" ry="47.65"/><path class="cls-4" d="M257,59.07c0,5.14-2.92,8.93-8.07,8.93H47.21C42.06,68,37,64.21,37,59.07v-9.8C37,44.13,42.06,40,47.21,40H248.93c5.15,0,8.07,4.13,8.07,9.27Z"/><path class="cls-5" d="M38.36,64.09a9.31,9.31,0,0,0,8.18,4.84H248.46a9.31,9.31,0,0,0,8.18-4.84Z"/><rect class="cls-6" x="37.21" y="49.91" width="220.57" height="8.28"/><path class="cls-4" d="M257,20c0,5.15-2.92,9-8.07,9H47.21C42.06,29,37,25.12,37,20V10.18C37,5,42.06,1,47.21,1H248.93c5.15,0,8.07,4,8.07,9.18Z"/><rect class="cls-4" x="37" y="29" width="220" height="12" rx="5.69" ry="5.69"/><path class="cls-5" d="M37.33,36.26a5.7,5.7,0,0,0,5.58,4.53H252.09a5.7,5.7,0,0,0,5.58-4.53Z"/><rect class="cls-6" x="47" y="5" width="5" height="20" rx="2.07" ry="2.07"/><rect class="cls-6" x="57" y="5" width="5" height="20" rx="2.07" ry="2.07"/><rect class="cls-6" x="68" y="5" width="5" height="20" rx="2.07" ry="2.07"/><rect class="cls-6" x="79" y="5" width="5" height="20" rx="2.07" ry="2.07"/><rect class="cls-6" x="88" y="5" width="5" height="20" rx="2.07" ry="2.07"/><rect class="cls-6" x="98" y="5" width="5" height="20" rx="2.07" ry="2.07"/><rect class="cls-6" x="109" y="5" width="5" height="20" rx="2.07" ry="2.07"/><rect class="cls-6" x="119" y="5" width="5" height="20" rx="2.07" ry="2.07"/><rect class="cls-6" x="130" y="5" width="5" height="20" rx="2.07" ry="2.07"/><path class="cls-6" d="M145,23.67c0,1.14-.23,2.33-1.37,2.33H143c-1.14,0-3-1.19-3-2.33v-16C140,6.52,141.89,5,143,5h.6C144.77,5,145,6.52,145,7.67Z"/><rect class="cls-6" x="150" y="5" width="5" height="20" rx="2.07" ry="2.07"/><rect class="cls-6" x="160" y="5" width="5" height="20" rx="2.07" ry="2.07"/><rect class="cls-6" x="171" y="5" width="5" height="20" rx="2.07" ry="2.07"/><rect class="cls-6" x="182" y="5" width="5" height="20" rx="2.07" ry="2.07"/><rect class="cls-6" x="191" y="5" width="5" height="20" rx="2.07" ry="2.07"/><rect class="cls-6" x="202" y="5" width="5" height="20" rx="1.77" ry="1.77"/><rect class="cls-6" x="212" y="5" width="5" height="20" rx="2.07" ry="2.07"/><path class="cls-6" d="M228,23.67c0,1.14-.3,2.33-1.44,2.33H226c-1.14,0-3-1.19-3-2.33v-16C223,6.52,224.82,5,226,5h.6C227.7,5,228,6.52,228,7.67Z"/><rect class="cls-6" x="234" y="5" width="5" height="20" rx="2.07" ry="2.07"/><rect class="cls-6" x="243" y="5" width="5" height="20" rx="2.07" ry="2.07"/><path class="cls-7" d="M238,104.83V81H57v23.7A50.66,50.66,0,0,0,12,155V357.72A50.34,50.34,0,0,0,62.66,408H231.34A50.34,50.34,0,0,0,282,357.72V155A50.65,50.65,0,0,0,238,104.83Z"/><rect class="cls-8" x="21" y="112" width="254" height="290" rx="47.65" ry="47.65"/><path class="cls-2" d="M147.5,145.64A107.24,107.24,0,1,0,254.73,252.88,107.23,107.23,0,0,0,147.5,145.64Z"/><path class="cls-9" d="M240.41,252.88A92.45,92.45,0,1,1,148,160.43,92.45,92.45,0,0,1,240.41,252.88Z"/><rect class="cls-10" x="119" width="57" height="154"/><path class="cls-11" d="M103.1,266.1v18.46H98v-7.23H91.84v7.23H86.77V266.1h5.07v6.81H98V266.1Z"/><path class="cls-11" d="M105.23,284.56V266.1h5.07v18.46Z"/><path class="cls-11" d="M112.7,288.64l.93-4.08h-1.48v-4.79h4.08v4.79l-1.4,4.08Z"/><path class="cls-11" d="M139.22,266.1v18.46h-5.07v-7.23H128v7.23h-5.07V266.1H128v6.81h6.19V266.1Z"/><path class="cls-11" d="M149.67,284.71a8.94,8.94,0,0,1-3.82-.8,9.44,9.44,0,0,1-4.84-5.13,9.26,9.26,0,0,1-.68-3.48,9.06,9.06,0,0,1,.71-3.51,9.19,9.19,0,0,1,2-3,9.7,9.7,0,0,1,3-2.05,9.22,9.22,0,0,1,3.78-.77,8.8,8.8,0,0,1,3.82.81,9.54,9.54,0,0,1,5.49,8.6,8.93,8.93,0,0,1-.7,3.5,9.57,9.57,0,0,1-1.95,3,9.73,9.73,0,0,1-3,2.06A9.07,9.07,0,0,1,149.67,284.71Zm-4.19-9.36a6.39,6.39,0,0,0,.26,1.81,5,5,0,0,0,.78,1.55,4,4,0,0,0,1.32,1.09,3.92,3.92,0,0,0,1.88.41,4.06,4.06,0,0,0,1.9-.42,3.87,3.87,0,0,0,1.31-1.12,4.93,4.93,0,0,0,.76-1.58,6.72,6.72,0,0,0,.24-1.79,6.1,6.1,0,0,0-.26-1.81,4.45,4.45,0,0,0-.79-1.53,4.11,4.11,0,0,0-1.33-1.07,4,4,0,0,0-1.86-.4,4,4,0,0,0-1.88.42,3.69,3.69,0,0,0-1.31,1.1,4.56,4.56,0,0,0-.77,1.56A6.33,6.33,0,0,0,145.48,275.35Z"/><path class="cls-11" d="M165.27,275.48v9.08H160.2V266.1h4l7.41,9.38V266.1h5.07v18.46h-4Z"/><path class="cls-11" d="M191.92,280.14v4.42H178.76V266.1h12.92v4.42h-7.85v2.6h6.71v4.1h-6.71v2.92Z"/><path class="cls-11" d="M197,266.1l3.3,8,3.38-8h5.51l-6.37,12.35v6.11h-5v-6.17L191.5,266.1Z"/><path class="cls-11" d="M85.05,227.76c0-6.56,2.74-10.15,8.15-10.15s8.22,3.53,8.22,10.15v18.07c0,4.28-1.09,6.73-2.69,8.27a8.77,8.77,0,0,1-11,0c-1.6-1.54-2.68-4-2.68-8.27Zm1.77,18.07c0,5.76,2.11,8.44,6.38,8.44s6.39-2.51,6.39-8.44V227.76c0-5.88-2.11-8.39-6.39-8.39s-6.38,2.68-6.38,8.39Z"/><path class="cls-11" d="M121.32,256h-1.83V245.32c0-4.62-2.62-7.3-7.18-7.3h-5.13v18h-1.77V217.55h8c6.16,0,8.32,3.19,8.32,10.21,0,3.42-.68,6-2.11,7.64a9.54,9.54,0,0,1-2.85,1.77,6.6,6.6,0,0,1,1.94,1.36,9,9,0,0,1,2.57,6.79ZM107.18,236.2h5.13c5.07,0,7.7-2.51,7.7-8.44s-1.49-8.39-6.56-8.39h-6.27Z"/><path class="cls-11" d="M125.2,227.7c0-6.62,2.73-10.09,8.21-10.09s8.21,3.47,8.21,10.09v.91h-1.83v-.91c0-3.71-.91-5.82-2.16-7a7.18,7.18,0,0,0-8.44,0c-1.26,1.14-2.23,3.25-2.23,7v18.19c0,5.7,2.11,8.38,6.45,8.38s6.38-2.68,6.38-8.38v-5h-8.32v-1.82h10.15v6.84c0,6.61-2.74,10.15-8.21,10.15s-8.21-3.59-8.21-10.15Z"/><path class="cls-11" d="M159.87,244.29H149.72L147.1,256h-1.83l3-13.34v-.18l5.82-24.91h1.42L164.32,256h-1.83Zm-9.7-1.77h9.3l-4.68-20.07Z"/><path class="cls-11" d="M182.68,256l-13.29-32.9V256h-1.82V217.61h1.54l13.23,32.9v-32.9h1.82V256Z"/><path class="cls-11" d="M190.09,256h-1.76V217.61h1.76Z"/><path class="cls-11" d="M194.26,227.76c0-4.17,1.08-6.79,2.68-8.27a9,9,0,0,1,11,0c1.6,1.48,2.68,4.1,2.68,8.27v.91H208.8v-.91c0-5.88-2.23-8.39-6.33-8.39s-6.39,2.51-6.39,8.39v18.07c0,5.88,2.11,8.44,6.39,8.44a5.82,5.82,0,0,0,4.73-2c1.09-1.43,1.6-3.54,1.6-6.45v-.91h1.82v.91c0,4.28-1.08,6.73-2.68,8.27a8.77,8.77,0,0,1-11,0c-1.6-1.54-2.68-4-2.68-8.27Z"/><line class="cls-12" x1="148.5" y1="323" x2="148.5" y2="328"/><path class="cls-13" d="M171.46,308.23c-1.13-3.75-5.77-5.67-10.36-4.28C157.62,305,151,311.27,148,314.24c-3-3-9.66-9.24-13.14-10.29-4.59-1.39-9.23.53-10.36,4.28s1.67,7.93,6.26,9.31a11.48,11.48,0,0,0,3.09.35l-.18.11c-2.44,1.72-3.28,4.74-1.87,6.74s4.54,2.22,7,.5c1.8-1.27,4.39-6,5.64-8.45,1.42-.25,2.67-.49,3.58-.67.91.18,2.15.42,3.57.67,1.25,2.43,3.84,7.18,5.64,8.45,2.45,1.72,5.57,1.5,7-.5s.57-5-1.87-6.74l-.18-.11a11.61,11.61,0,0,0,3.1-.35C169.79,316.16,172.6,312,171.46,308.23Z"/><path class="cls-14" d="M142.28,308.28v11.87a5.89,5.89,0,0,0,5.8,6h.21a5.89,5.89,0,0,0,5.8-6V308.28Z"/><line class="cls-15" x1="142.93" y1="298.21" x2="146" y2="304.56"/><line class="cls-15" x1="153.11" y1="298.21" x2="150.04" y2="304.56"/><path class="cls-11" d="M154.09,309.81v-2.08a5.8,5.8,0,0,0-5.8-5.8h-.21a5.8,5.8,0,0,0-5.8,5.8v2.08Z"/><rect class="cls-11" x="142.28" y="312.56" width="11.82" height="2.84"/><rect class="cls-11" x="142.28" y="317.37" width="11.82" height="2.84"/><line class="cls-12" x1="148.5" y1="182" x2="148.5" y2="177"/><path class="cls-13" d="M171.46,197.52c-1.13,3.75-5.77,5.67-10.36,4.29-3.48-1.05-10.12-7.32-13.13-10.29-3,3-9.66,9.24-13.14,10.29-4.59,1.38-9.23-.54-10.36-4.29s1.67-7.92,6.26-9.31a11.9,11.9,0,0,1,3.09-.35l-.18-.1c-2.44-1.72-3.28-4.75-1.87-6.74s4.54-2.23,7-.51c1.8,1.27,4.39,6,5.64,8.46,1.42.24,2.67.48,3.58.66.91-.18,2.15-.42,3.57-.66,1.25-2.43,3.84-7.19,5.64-8.46,2.45-1.72,5.57-1.49,7,.51s.57,5-1.87,6.74l-.18.1a12,12,0,0,1,3.1.35C169.79,189.6,172.6,193.77,171.46,197.52Z"/><path class="cls-14" d="M142.28,197.48V185.61a5.88,5.88,0,0,1,5.8-6h.21a5.88,5.88,0,0,1,5.8,6v11.87Z"/><line class="cls-15" x1="142.93" y1="207.54" x2="146" y2="201.2"/><line class="cls-15" x1="153.11" y1="207.54" x2="150.04" y2="201.2"/><path class="cls-11" d="M154.09,196V198a5.79,5.79,0,0,1-5.8,5.8h-.21a5.79,5.79,0,0,1-5.8-5.8V196Z"/><rect class="cls-11" x="142.28" y="190.35" width="11.82" height="2.84"/><rect class="cls-11" x="142.28" y="185.54" width="11.82" height="2.84"/></g></g></g></svg>