<svg xmlns="http://www.w3.org/2000/svg" xmlns:xlink="http://www.w3.org/1999/xlink" viewBox="0 0 295 420"><defs><style>.cls-1{isolation:isolate;}.cls-2{fill:#fff;}.cls-3{fill:#eeeded;}.cls-4{fill:#020f00;}.cls-5{opacity:0.2;mix-blend-mode:overlay;}.cls-6{fill:#454c53;}.cls-7{fill:#ffc600;}.cls-8{mix-blend-mode:soft-light;fill:url(#linear-gradient);}.cls-20,.cls-23,.cls-9{fill:none;}.cls-9{stroke:#ffc300;stroke-miterlimit:10;stroke-width:4.67px;}.cls-10{fill:url(#linear-gradient-2);}.cls-11{font-size:26px;font-family:Raleway-Black, Raleway;letter-spacing:-0.04em;}.cls-11,.cls-13,.cls-24{fill:#1e1e1e;}.cls-12{letter-spacing:-0.08em;}.cls-13{font-size:57.03px;font-family:OstrichSans-Medium, Ostrich Sans;}.cls-14{letter-spacing:0.04em;}.cls-15{letter-spacing:0.19em;}.cls-16{letter-spacing:0.23em;}.cls-17{letter-spacing:0.17em;}.cls-18{letter-spacing:-0.27em;}.cls-19{letter-spacing:0.02em;}.cls-20,.cls-23{stroke:#1e1e1e;stroke-linecap:round;stroke-linejoin:round;}.cls-20{stroke-width:3px;}.cls-21{fill:#e3e1e1;}.cls-22{fill:#ffc300;}.cls-23{stroke-width:2.63px;}</style><linearGradient id="linear-gradient" x1="233.82" y1="108.36" x2="62.18" y2="405.64" gradientUnits="userSpaceOnUse"><stop offset="0" stop-color="#fff"/><stop offset="1"/></linearGradient><linearGradient id="linear-gradient-2" x1="147.5" y1="154" x2="147.5" gradientUnits="userSpaceOnUse"><stop offset="0.78" stop-color="#fff"/><stop offset="1" stop-color="#d2d2d2"/></linearGradient></defs><title>Asset 1</title><g class="cls-1"><g id="Layer_2" data-name="Layer 2"><g id="OBJECTS"><path class="cls-2" d="M250,94.78V59H45V94.88A61.23,61.23,0,0,0,0,154V359.09C0,392.93,28.23,420,62.07,420H234.53c33.84,0,60.47-27.07,60.47-60.91V154A61,61,0,0,0,250,94.78Z"/><rect class="cls-3" x="21" y="112" width="254" height="290" rx="47.65" ry="47.65"/><path class="cls-4" d="M257,59.07c0,5.14-2.92,8.93-8.07,8.93H47.21C42.06,68,37,64.21,37,59.07v-9.8C37,44.13,42.06,40,47.21,40H248.93c5.15,0,8.07,4.13,8.07,9.27Z"/><path class="cls-5" d="M38.36,64.09a9.31,9.31,0,0,0,8.18,4.84H248.46a9.31,9.31,0,0,0,8.18-4.84Z"/><rect class="cls-6" x="37.21" y="49.91" width="220.57" height="8.28"/><path class="cls-4" d="M257,20c0,5.15-2.92,9-8.07,9H47.21C42.06,29,37,25.12,37,20V10.18C37,5,42.06,1,47.21,1H248.93c5.15,0,8.07,4,8.07,9.18Z"/><rect class="cls-4" x="37" y="29" width="220" height="12" rx="5.69" ry="5.69"/><path class="cls-5" d="M37.33,36.26a5.7,5.7,0,0,0,5.58,4.53H252.09a5.7,5.7,0,0,0,5.58-4.53Z"/><rect class="cls-6" x="47" y="5" width="5" height="20" rx="2.07" ry="2.07"/><rect class="cls-6" x="57" y="5" width="5" height="20" rx="2.07" ry="2.07"/><rect class="cls-6" x="68" y="5" width="5" height="20" rx="2.07" ry="2.07"/><rect class="cls-6" x="79" y="5" width="5" height="20" rx="2.07" ry="2.07"/><rect class="cls-6" x="88" y="5" width="5" height="20" rx="2.07" ry="2.07"/><rect class="cls-6" x="98" y="5" width="5" height="20" rx="2.07" ry="2.07"/><rect class="cls-6" x="109" y="5" width="5" height="20" rx="2.07" ry="2.07"/><rect class="cls-6" x="119" y="5" width="5" height="20" rx="2.07" ry="2.07"/><rect class="cls-6" x="130" y="5" width="5" height="20" rx="2.07" ry="2.07"/><path class="cls-6" d="M145,23.67c0,1.14-.23,2.33-1.37,2.33H143c-1.14,0-3-1.19-3-2.33v-16C140,6.52,141.89,5,143,5h.6C144.77,5,145,6.52,145,7.67Z"/><rect class="cls-6" x="150" y="5" width="5" height="20" rx="2.07" ry="2.07"/><rect class="cls-6" x="160" y="5" width="5" height="20" rx="2.07" ry="2.07"/><rect class="cls-6" x="171" y="5" width="5" height="20" rx="2.07" ry="2.07"/><rect class="cls-6" x="182" y="5" width="5" height="20" rx="2.07" ry="2.07"/><rect class="cls-6" x="191" y="5" width="5" height="20" rx="2.07" ry="2.07"/><rect class="cls-6" x="202" y="5" width="5" height="20" rx="1.77" ry="1.77"/><rect class="cls-6" x="212" y="5" width="5" height="20" rx="2.07" ry="2.07"/><path class="cls-6" d="M228,23.67c0,1.14-.3,2.33-1.44,2.33H226c-1.14,0-3-1.19-3-2.33v-16C223,6.52,224.82,5,226,5h.6C227.7,5,228,6.52,228,7.67Z"/><rect class="cls-6" x="234" y="5" width="5" height="20" rx="2.07" ry="2.07"/><rect class="cls-6" x="243" y="5" width="5" height="20" rx="2.07" ry="2.07"/><path class="cls-7" d="M238,104.83V81H57v23.7A50.66,50.66,0,0,0,12,155V357.72A50.34,50.34,0,0,0,62.66,408H231.34A50.34,50.34,0,0,0,282,357.72V155A50.65,50.65,0,0,0,238,104.83Z"/><rect class="cls-8" x="21" y="112" width="254" height="290" rx="47.65" ry="47.65"/><path class="cls-2" d="M147.5,145.64A107.24,107.24,0,1,0,254.73,252.88,107.23,107.23,0,0,0,147.5,145.64Z"/><path class="cls-9" d="M240.41,252.88A92.45,92.45,0,1,1,148,160.43,92.45,92.45,0,0,1,240.41,252.88Z"/><rect class="cls-10" x="119" width="57" height="154"/><text class="cls-11" transform="translate(85.19 284.56)">HI, HONE<tspan class="cls-12" x="106.47" y="0">Y</tspan></text><text class="cls-13" transform="translate(84.48 256.04)">O<tspan class="cls-14" x="20.3" y="0">r</tspan><tspan class="cls-15" x="40.15" y="0">g</tspan><tspan class="cls-16" x="60.22" y="0">a</tspan><tspan class="cls-17" x="82.58" y="0">n</tspan><tspan class="cls-18" x="103.11" y="0">i</tspan><tspan class="cls-19" x="109.32" y="0">c</tspan></text><line class="cls-20" x1="148.5" y1="323" x2="148.5" y2="328"/><path class="cls-21" d="M171.46,308.23c-1.13-3.75-5.77-5.67-10.36-4.28C157.62,305,151,311.27,148,314.24c-3-3-9.66-9.24-13.14-10.29-4.59-1.39-9.23.53-10.36,4.28s1.67,7.93,6.26,9.31a11.48,11.48,0,0,0,3.09.35l-.18.11c-2.44,1.72-3.28,4.74-1.87,6.74s4.54,2.22,7,.5c1.8-1.27,4.39-6,5.64-8.45,1.42-.25,2.67-.49,3.58-.67.91.18,2.15.42,3.57.67,1.25,2.43,3.84,7.18,5.64,8.45,2.45,1.72,5.57,1.5,7-.5s.57-5-1.87-6.74l-.18-.11a11.61,11.61,0,0,0,3.1-.35C169.79,316.16,172.6,312,171.46,308.23Z"/><path class="cls-22" d="M142.28,308.28v11.87a5.89,5.89,0,0,0,5.8,6h.21a5.89,5.89,0,0,0,5.8-6V308.28Z"/><line class="cls-23" x1="142.93" y1="298.21" x2="146" y2="304.56"/><line class="cls-23" x1="153.11" y1="298.21" x2="150.04" y2="304.56"/><path class="cls-24" d="M154.09,309.81v-2.08a5.8,5.8,0,0,0-5.8-5.8h-.21a5.8,5.8,0,0,0-5.8,5.8v2.08Z"/><rect class="cls-24" x="142.28" y="312.56" width="11.82" height="2.84"/><rect class="cls-24" x="142.28" y="317.37" width="11.82" height="2.84"/><line class="cls-20" x1="148.5" y1="182" x2="148.5" y2="177"/><path class="cls-21" d="M171.46,197.52c-1.13,3.75-5.77,5.67-10.36,4.29-3.48-1.05-10.12-7.32-13.13-10.29-3,3-9.66,9.24-13.14,10.29-4.59,1.38-9.23-.54-10.36-4.29s1.67-7.92,6.26-9.31a11.9,11.9,0,0,1,3.09-.35l-.18-.1c-2.44-1.72-3.28-4.75-1.87-6.74s4.54-2.23,7-.51c1.8,1.27,4.39,6,5.64,8.46,1.42.24,2.67.48,3.58.66.91-.18,2.15-.42,3.57-.66,1.25-2.43,3.84-7.19,5.64-8.46,2.45-1.72,5.57-1.49,7,.51s.57,5-1.87,6.74l-.18.1a12,12,0,0,1,3.1.35C169.79,189.6,172.6,193.77,171.46,197.52Z"/><path class="cls-22" d="M142.28,197.48V185.61a5.88,5.88,0,0,1,5.8-6h.21a5.88,5.88,0,0,1,5.8,6v11.87Z"/><line class="cls-23" x1="142.93" y1="207.54" x2="146" y2="201.2"/><line class="cls-23" x1="153.11" y1="207.54" x2="150.04" y2="201.2"/><path class="cls-24" d="M154.09,196V198a5.79,5.79,0,0,1-5.8,5.8h-.21a5.79,5.79,0,0,1-5.8-5.8V196Z"/><rect class="cls-24" x="142.28" y="190.35" width="11.82" height="2.84"/><rect class="cls-24" x="142.28" y="185.54" width="11.82" height="2.84"/></g></g></g></svg>