<svg xmlns="http://www.w3.org/2000/svg" viewBox="0 0 429 499.02"><defs><style>.cls-1{fill:#fff;stroke:#fff;stroke-miterlimit:10;}.cls-2{fill:#ffeaa7;}.cls-3,.cls-7{fill:#ffc600;}.cls-4{fill:#dfb28b;}.cls-5{fill:#e6e9ed;}.cls-6{fill:#cf9e76;}.cls-7{font-size:48px;font-family:Montserrat-Bold, Montserrat;font-weight:700;}.cls-8{letter-spacing:0.01em;}.cls-9{letter-spacing:-0.01em;}</style></defs><title>Asset 2</title><g id="Layer_2" data-name="Layer 2"><g id="Layer_1-2" data-name="Layer 1"><rect class="cls-1" x="0.5" y="0.52" width="428" height="234"/><path class="cls-1" d="M214.5,498.52h0c-118.19,0-214-95.81-214-214v-70C.5,96.33,96.31.52,214.5.52h0C330.93-1,427,95.09,428.5,214.52v70C428.5,402.71,332.69,498.52,214.5,498.52Z"/><path class="cls-2" d="M293.12,226.12A11,11,0,0,0,284,215.43l4.27-.1,24.24-11.63V161.56L273.73,143l-38.79,18.61v25.72a24.66,24.66,0,0,0-19.39-9.3V150.07l58.18-27.91,58.17,27.91v65.12L289,235.8l2.52-4A11,11,0,0,0,293.12,226.12Z"/><path class="cls-2" d="M273.73,57v65.13l-58.18,27.91-58.18-27.91V57l58.18-27.91Z"/><path class="cls-2" d="M118.59,203.7l24.24,11.63L144,216.5a10.74,10.74,0,0,0-4.37,15.26l2.52,4L99.2,215.19V150.07l58.17-27.91,58.18,27.91V178a24.66,24.66,0,0,0-19.39,9.3V161.56L157.37,143l-38.78,18.61Z"/><path class="cls-3" d="M254.33,68.52v42.15l-38.78,18.6-38.79-18.6V68.52l38.79-18.61Z"/><path class="cls-3" d="M312.51,161.56V203.7l-24.24,11.63-4.27.1a12,12,0,0,0-2.27-.24H250.65a51.64,51.64,0,0,0-19,3.63l-.49.19a22.78,22.78,0,0,0,8.63-17.77,22.35,22.35,0,0,0-4.85-14V161.56L273.73,143Z"/><path class="cls-3" d="M199.89,219c-.14,0-.29-.14-.44-.19a51.64,51.64,0,0,0-19-3.63H149.37A11.58,11.58,0,0,0,144,216.5l-1.12-1.17L118.59,203.7V161.56L157.37,143l38.79,18.61v25.72a22.35,22.35,0,0,0-4.85,14A23,23,0,0,0,199.89,219Z"/><path class="cls-4" d="M248.81,261.39A63.57,63.57,0,0,1,240,285.11l-.24-.14s-14.55-4.65-24.24-4.65S191.31,285,191.31,285l-.24.14c-.1-.19-.24-.37-.34-.56a62.51,62.51,0,0,1-8.44-23.16c3.49-1.59,20.31-9,33.26-9S245.32,259.8,248.81,261.39Z"/><path class="cls-3" d="M215.55,229.15l34.18,18.23-.24.38v4.37a66.08,66.08,0,0,1-.68,9.26c-3.49-1.59-20.32-9-33.26-9s-29.77,7.39-33.26,9a66.08,66.08,0,0,1-.68-9.26v-4.37l-.24-.38Z"/><path class="cls-3" d="M215.55,280.32c9.69,0,24.24,4.65,24.24,4.65l.24.14a65.88,65.88,0,0,1-24.48,23.12,65.88,65.88,0,0,1-24.48-23.12l.24-.14S205.85,280.32,215.55,280.32Z"/><path class="cls-5" d="M293.12,226.12a11,11,0,0,1-1.6,5.64l-2.52,4H289l-3.54,5.68a23.64,23.64,0,0,1-20.12,10.93,24.32,24.32,0,0,1-11.44-2.84l-4.12-2.19-34.18-18.23A50,50,0,0,1,231.16,219l.49-.19a51.64,51.64,0,0,1,19-3.63h31.08a12,12,0,0,1,2.27.24A11,11,0,0,1,293.12,226.12Z"/><path class="cls-5" d="M215.55,229.15l-34.18,18.23-4.12,2.19a24.32,24.32,0,0,1-11.44,2.84,23.64,23.64,0,0,1-20.12-10.93l-3.54-5.68h-.05l-2.52-4A10.74,10.74,0,0,1,144,216.5a11.58,11.58,0,0,1,5.42-1.31h31.08a51.64,51.64,0,0,1,19,3.63c.15.05.3.14.44.19l.05.05A49,49,0,0,1,215.55,229.15Z"/><path class="cls-6" d="M196.16,187.28a24.86,24.86,0,0,1,38.78,0,22.35,22.35,0,0,1,4.85,14A22.78,22.78,0,0,1,231.16,219a50,50,0,0,0-15.61,10.14,49,49,0,0,0-15.61-10.09l-.05-.05a23,23,0,0,1-8.58-17.77A22.35,22.35,0,0,1,196.16,187.28Z"/><path d="M259.18,113.53V65.66L215.55,44.72,171.92,65.66v47.88l43.63,20.93ZM181.61,71.41l33.94-16.28,33.94,16.28v36.37l-33.94,16.28-33.94-16.28Z"/><path d="M336.75,147.19l-58.18-27.91V54.16l-63-30.24-63,30.24v65.12L94.35,147.19v70.88l44.36,21.28,2.82,4.5a28.73,28.73,0,0,0,24.3,13.21,29.27,29.27,0,0,0,11-2.18c1,23.74,14.68,45.54,36.29,57.39l2.4,1.32,2.4-1.32c21.61-11.85,35.29-33.65,36.29-57.39a29.23,29.23,0,0,0,11,2.18,28.75,28.75,0,0,0,24.3-13.2l2.82-4.5,44.36-21.29ZM162.22,59.91l53.33-25.59,53.33,25.59v59.37l-53.33,25.59-53.33-25.59Zm123.9,151.28a16.76,16.76,0,0,0-4.39-.65H250.66a56.58,56.58,0,0,0-7.95.62,26.72,26.72,0,0,0-2.92-25.32v-21.4l33.94-16.28,33.93,16.28v36.38L286.1,211.16Zm-51.18-9.95a18.24,18.24,0,0,1-6.58,13.91,54.38,54.38,0,0,0-12.81,7.73,54.38,54.38,0,0,0-12.81-7.73,18.22,18.22,0,0,1-6.58-13.91c0-10.26,8.7-18.61,19.39-18.61S234.94,191,234.94,201.24Zm9.54,53.24c-7.33-2.87-19-6.72-28.93-6.72s-21.6,3.85-28.93,6.72c0-.79-.16-1.56-.16-2.36V250l29.09-15.51L244.64,250v2.14C244.64,252.92,244.51,253.69,244.48,254.48Zm-1.23,9.61a58.38,58.38,0,0,1-5.61,15.38c-5.17-1.44-14.73-3.8-22.09-3.8s-16.92,2.36-22.09,3.8a58.32,58.32,0,0,1-5.61-15.39c6.17-2.57,18.22-7,27.7-7S237.07,261.52,243.25,264.09ZM123.44,200.82V164.44l33.93-16.28,33.94,16.28v21.41a26.65,26.65,0,0,0-2.91,25.31,56.84,56.84,0,0,0-8-.62H149.37a16.76,16.76,0,0,0-4.39.65l0,0ZM104,152.94l53.33-25.58,53.33,25.58v20.81a29.62,29.62,0,0,0-9.7,3.35V158.69l-43.63-20.93-43.63,20.93v47.88l22.3,10.7a15,15,0,0,0-2.91,8.85s0,.11,0,.16l-29.1-14Zm61.79,94.82a18.91,18.91,0,0,1-16-8.69l-6.07-9.72a6,6,0,0,1-.94-3.23,6.41,6.41,0,0,1,6.54-6.27h31.07a45.66,45.66,0,0,1,26.7,8.46L174.88,245.5A19.21,19.21,0,0,1,165.83,247.76Zm49.72,55a61.55,61.55,0,0,1-16.83-15.08c4.83-1.25,11.67-2.75,16.83-2.75s12,1.5,16.83,2.75A61.55,61.55,0,0,1,215.55,302.8Zm65.71-63.73a18.91,18.91,0,0,1-16,8.69,19.28,19.28,0,0,1-9.06-2.26L224,228.31a45.69,45.69,0,0,1,26.71-8.46h31.07a6.41,6.41,0,0,1,6.54,6.27,6.07,6.07,0,0,1-.93,3.23Zm45.79-26.75-29.09,14c0-.05,0-.11,0-.16a15,15,0,0,0-2.91-8.85l22.3-10.7V158.69l-43.63-20.93-43.64,20.93v18.42a29.28,29.28,0,0,0-9.69-3.36V153l53.33-25.59L327.05,153Z"/><text class="cls-7" transform="translate(86.59 382.9)">Hi, Ho<tspan class="cls-8" x="149.61" y="0">n</tspan><tspan class="cls-9" x="183.07" y="0">e</tspan><tspan x="212.88" y="0">y!</tspan></text></g></g></svg>