<svg xmlns="http://www.w3.org/2000/svg" viewBox="0 0 429 499.02"><defs><style>.cls-1{fill:#fff;stroke:#fff;stroke-miterlimit:10;}.cls-2{fill:#ffeaa7;}.cls-3{fill:#ffc600;}.cls-4{fill:#dfb28b;}.cls-5{fill:#e6e9ed;}.cls-6{fill:#cf9e76;}.cls-7{isolation:isolate;}</style></defs><title>Asset 1</title><g id="Layer_2" data-name="Layer 2"><g id="Layer_1-2" data-name="Layer 1"><rect class="cls-1" x="0.5" y="0.52" width="428" height="234"/><path class="cls-1" d="M214.5,498.52h0c-118.2,0-214-95.8-214-214v-70c0-118.2,95.8-214,214-214h0c116.4-1.5,212.5,94.6,214,214v70C428.5,402.72,332.7,498.52,214.5,498.52Z"/><path class="cls-2" d="M293.2,226.12a11,11,0,0,0-9.1-10.7l4.3-.1,24.2-11.6v-42.1l-38.8-18.7L235,161.52v25.7a24.73,24.73,0,0,0-19.4-9.3V150l58.2-27.9L332,150v65.1l-42.9,20.6,2.5-4A11,11,0,0,0,293.2,226.12Z"/><path class="cls-2" d="M273.8,57v65.1L215.6,150l-58.2-27.9V57l58.2-27.9Z"/><path class="cls-2" d="M118.6,203.72l24.2,11.6,1.1,1.2a10.65,10.65,0,0,0-4.4,15.2l2.5,4-42.9-20.6V150l58.2-27.9L215.5,150v27.9a24.73,24.73,0,0,0-19.4,9.3v-25.7l-38.7-18.6-38.8,18.6Z"/><path class="cls-3" d="M254.4,68.52v42.1l-38.8,18.6-38.8-18.6V68.52l38.8-18.6Z"/><path class="cls-3" d="M312.5,161.62v42.1l-24.2,11.6-4.3.1a16.41,16.41,0,0,0-2.3-.2h-31a53,53,0,0,0-19,3.6,1.69,1.69,0,0,0-.5.2,22.76,22.76,0,0,0,3.8-31.8v-25.7l38.8-18.6Z"/><path class="cls-3" d="M199.9,219a.76.76,0,0,1-.4-.2,50.93,50.93,0,0,0-19-3.6H149.4a12,12,0,0,0-5.4,1.3l-1.1-1.2-24.2-11.6v-42.1L157.5,143l38.8,18.6v25.7a22.83,22.83,0,0,0,3.6,31.7Z"/><path class="cls-4" d="M248.8,261.42a62.36,62.36,0,0,1-8.8,23.7l-.2-.1s-14.5-4.7-24.2-4.7-24.2,4.7-24.2,4.7l-.2.1-.3-.6a61.69,61.69,0,0,1-8.4-23.2c3.5-1.6,20.3-9,33.3-9C228.5,252.42,245.4,259.82,248.8,261.42Z"/><path class="cls-3" d="M215.6,229.12l34.2,18.2-.2.4v4.4a58.24,58.24,0,0,1-.7,9.3c-3.5-1.6-20.3-9-33.3-9s-29.8,7.4-33.3,9a70.12,70.12,0,0,1-.7-9.3v-4.4l-.2-.4Z"/><path class="cls-3" d="M215.6,280.32c9.7,0,24.2,4.7,24.2,4.7l.2.1a65.67,65.67,0,0,1-24.5,23.1,65.67,65.67,0,0,1-24.5-23.1l.2-.1C191.3,285,205.9,280.32,215.6,280.32Z"/><path class="cls-5" d="M293.2,226.12a11,11,0,0,1-1.6,5.6l-2.5,4h0l-3.5,5.7a23.58,23.58,0,0,1-20.1,10.9,24.64,24.64,0,0,1-11.4-2.8l-4.1-2.2-34.2-18.2A48.71,48.71,0,0,1,231.4,219a1.69,1.69,0,0,0,.5-.2,50.93,50.93,0,0,1,19-3.6H282a16.41,16.41,0,0,1,2.3.2A11,11,0,0,1,293.2,226.12Z"/><path class="cls-5" d="M215.6,229.12l-34.2,18.2-4.1,2.2a24.18,24.18,0,0,1-31.5-8.1l-3.5-5.7h0l-2.5-4a11,11,0,0,1-1.6-5.6,10.8,10.8,0,0,1,6-9.6,12,12,0,0,1,5.4-1.3h31.1a53,53,0,0,1,19,3.6.76.76,0,0,1,.4.2h0A52.45,52.45,0,0,1,215.6,229.12Z"/><path class="cls-6" d="M196.2,187.32a24.88,24.88,0,0,1,38.8,0,22.19,22.19,0,0,1,4.8,14,22.87,22.87,0,0,1-8.6,17.8,50.45,50.45,0,0,0-15.6,10.1,48.71,48.71,0,0,0-15.6-10.1h0a23.18,23.18,0,0,1-8.6-17.8A21.43,21.43,0,0,1,196.2,187.32Z"/><path d="M259.2,113.52V65.72l-43.6-20.9L172,65.72v47.9l43.6,20.9Zm-77.6-42.1,33.9-16.3,33.9,16.3v36.4l-33.9,16.3-33.9-16.3Z"/><path d="M336.8,147.22l-58.2-27.9V54.22L215.6,24l-63,30.2v65.1l-58.2,27.9v70.9l44.4,21.3,2.8,4.5a28.85,28.85,0,0,0,24.3,13.2,29.57,29.57,0,0,0,11-2.2c1,23.7,14.7,45.5,36.3,57.4l2.4,1.3,2.4-1.3c21.6-11.8,35.3-33.7,36.3-57.4a29.57,29.57,0,0,0,11,2.2,28.85,28.85,0,0,0,24.3-13.2l2.8-4.5,44.4-21.3v-70.9ZM162.3,59.92l53.3-25.6,53.3,25.6v59.4l-53.3,25.6-53.3-25.6V59.92Zm123.9,151.3a16.11,16.11,0,0,0-4.4-.6H250.7a53.86,53.86,0,0,0-8,.6,27.66,27.66,0,0,0,1.9-9.9,27.28,27.28,0,0,0-4.8-15.4v-21.4l33.9-16.3,33.9,16.3v36.4l-21.4,10.3Zm-51.2-10a18.14,18.14,0,0,1-6.6,13.9,57.31,57.31,0,0,0-12.8,7.7,50.71,50.71,0,0,0-12.8-7.7,18.14,18.14,0,0,1-6.6-13.9c0-10.3,8.7-18.6,19.4-18.6S235,191,235,201.22Zm9.5,53.3c-7.3-2.9-19-6.7-28.9-6.7s-21.6,3.9-28.9,6.7c0-.8-.2-1.6-.2-2.4V250l29.1-15.5L244.7,250v2.1C244.7,252.92,244.5,253.72,244.5,254.52Zm-1.2,9.6a60.49,60.49,0,0,1-5.6,15.4c-5.2-1.4-14.7-3.8-22.1-3.8s-16.9,2.4-22.1,3.8a55.73,55.73,0,0,1-5.6-15.4c6.2-2.6,18.2-7,27.7-7S237.1,261.52,243.3,264.12Zm-119.8-63.3v-36.4l33.9-16.3,33.9,16.3v21.4a26.54,26.54,0,0,0-4.8,15.4,27.66,27.66,0,0,0,1.9,9.9,52.87,52.87,0,0,0-8-.6H149.3a21.21,21.21,0,0,0-4.4.6h0Zm-19.4-47.9,53.3-25.6,53.3,25.6v20.8a29.49,29.49,0,0,0-9.7,3.4v-18.4l-43.6-20.9-43.6,20.9v47.9l22.3,10.7a15.27,15.27,0,0,0-2.9,8.9v.2l-29.1-14v-59.5Zm61.8,94.9a18.93,18.93,0,0,1-16-8.7l-6.1-9.7a6.2,6.2,0,0,1-.9-3.2,6.38,6.38,0,0,1,6.5-6.3h31.1a45.62,45.62,0,0,1,26.7,8.5l-32.3,17.2A19.94,19.94,0,0,1,165.9,247.82Zm49.7,55a60.9,60.9,0,0,1-16.8-15.1c4.8-1.3,11.7-2.7,16.8-2.7s12,1.5,16.8,2.7A60.9,60.9,0,0,1,215.6,302.82Zm65.7-63.7a18.8,18.8,0,0,1-16,8.7,19.21,19.21,0,0,1-9.1-2.3l-32.3-17.2a45.85,45.85,0,0,1,26.7-8.5h31.1a6.38,6.38,0,0,1,6.5,6.3,6,6,0,0,1-.9,3.2Zm45.8-26.8-29.1,14v-.2a15.51,15.51,0,0,0-2.9-8.9l22.3-10.7v-47.9l-43.6-20.9-43.6,20.9V177a31,31,0,0,0-9.7-3.4v-20.7l53.3-25.6,53.3,25.6v59.4Z"/><g class="cls-7"><path class="cls-3" d="M121.43,349.31v33.61h-7.78V369.14H98.39v13.78H90.61V349.31h7.78v13.25h15.26V349.31Z"/><path class="cls-3" d="M128,349.31c0-2.35,1.88-4.17,4.66-4.17s4.66,1.73,4.66,4c0,2.5-1.88,4.32-4.66,4.32S128,351.67,128,349.31Zm.92,7.78h7.48v25.83h-7.48Z"/><path class="cls-3" d="M150.8,378.6c0,1.25-.19,2.16-1.29,4.8l-2.74,6.91H142l2.11-7.63a4.18,4.18,0,0,1-2.59-4.08,4.63,4.63,0,0,1,9.26,0Z"/><path class="cls-3" d="M200.82,349.31v33.61H193V369.14H177.78v13.78H170V349.31h7.78v13.25H193V349.31Z"/><path class="cls-3" d="M206.34,370c0-7.77,6-13.29,14.2-13.29s14.17,5.52,14.17,13.29-6,13.3-14.17,13.3S206.34,377.78,206.34,370Zm20.78,0c0-4.46-2.83-7.15-6.58-7.15s-6.62,2.69-6.62,7.15,2.88,7.16,6.62,7.16S227.12,374.47,227.12,370Z"/><path class="cls-3" d="M266.1,368.13v14.79h-7.49V369.28c0-4.17-1.92-6.09-5.23-6.09-3.6,0-6.2,2.21-6.2,7v12.77H239.7V357.09h7.15v3a11.3,11.3,0,0,1,8.54-3.41C261.49,356.71,266.1,360.26,266.1,368.13Z"/><path class="cls-3" d="M298.31,372.12H278.77c.72,3.21,3.45,5.18,7.39,5.18a8.77,8.77,0,0,0,6.48-2.49l4,4.32c-2.4,2.73-6,4.17-10.66,4.17-8.93,0-14.74-5.62-14.74-13.3s5.91-13.29,13.78-13.29c7.58,0,13.44,5.09,13.44,13.39C298.45,370.68,298.35,371.49,298.31,372.12Zm-19.64-4.37h12.72a6.45,6.45,0,0,0-12.72,0Z"/><path class="cls-3" d="M328.59,357.09,316.93,384.5c-2.5,6.24-6.05,8.11-10.71,8.11a11.45,11.45,0,0,1-7.2-2.35l2.74-5.33a6.64,6.64,0,0,0,4.22,1.64c2.07,0,3.22-.92,4.23-3.22l.09-.24-11.18-26h7.73l7.25,17.52,7.29-17.52Z"/><path class="cls-3" d="M330.56,378.93a4.62,4.62,0,0,1,9.22,0,4.62,4.62,0,0,1-9.22,0Zm.14-29.62h8.93l-1.49,21.94h-5.95Z"/></g></g></g></svg>