<svg xmlns="http://www.w3.org/2000/svg" xmlns:xlink="http://www.w3.org/1999/xlink" viewBox="0 0 89.72 92.99"><defs><style>.cls-1{fill:#ffc600;}.cls-2{fill:#002c51;}.cls-3{fill:#c4eced;}.cls-4{clip-path:url(#clip-path);}.cls-5{fill:none;stroke:#002c51;stroke-linecap:round;stroke-miterlimit:10;stroke-width:1.5px;}.cls-6{fill:#ff715a;}</style><clipPath id="clip-path"><path class="cls-1" d="M80.26,45.42c0,15.64-36.32,33.16-52,33.16A28.31,28.31,0,0,1,28.3,22C43.94,22,80.26,29.79,80.26,45.42Z"/></clipPath></defs><title>Asset 1</title><g id="Layer_2" data-name="Layer 2"><g id="OBJECTS"><path class="cls-2" d="M77.06,38.51a34.2,34.2,0,0,0,12.66,4.66c-5.77,1.06-11.15,7.7-11.15,7.7Z"/><path class="cls-3" d="M47.91,24.62S60.13,17.36,58.79,8.46s-9-5.8-11.51-2.15c-3.61,5.36-4.76,17.8-4.76,17.8Z"/><path class="cls-3" d="M37.28,22.89s-9.72-10.36-6-18.55S41.62,1.29,43,5.48c2,6.16-.37,18.42-.37,18.42Z"/><path class="cls-1" d="M80.26,45.42c0,15.64-36.32,33.16-52,33.16A28.31,28.31,0,0,1,28.3,22C43.94,22,80.26,29.79,80.26,45.42Z"/><g class="cls-4"><path class="cls-2" d="M36.22,21.64s10.91,15.88,4,55,9.67-4.14,9.67-4.14,8.29-22.8-4-54.16S36.22,21.64,36.22,21.64Z"/><path class="cls-2" d="M58.32,21.61s9.59,14,3.52,48.28,8.49-3.64,8.49-3.64,7.28-20-3.52-47.55S58.32,21.61,58.32,21.61Z"/></g><path class="cls-5" d="M9.69,55.76s3.81,6.79,10.15.27"/><path class="cls-6" d="M28.43,52.15a3.18,3.18,0,1,1-2.79-3.53A3.18,3.18,0,0,1,28.43,52.15Z"/><path class="cls-6" d="M8.1,49.78a2.58,2.58,0,1,1-2.26-2.86A2.58,2.58,0,0,1,8.1,49.78Z"/><path class="cls-2" d="M20.21,43.44a2.19,2.19,0,0,1,4.24,1.11c-.26,1.24,1.65,1.74,1.9.49a4.15,4.15,0,1,0-8-2.09c-.39,1.21,1.52,1.7,1.9.49Z"/><path class="cls-2" d="M8.85,42.77a2.19,2.19,0,0,1,4.37-.2c.13,1.26,2.1,1.17,2-.09a4.23,4.23,0,0,0-4.35-4,4.24,4.24,0,0,0-4,4.34c0,1.27,2,1.18,2-.09Z"/></g></g></svg>